<?xml version="1.0" standalone="no"?>
<!DOCTYPE svg PUBLIC "-//W3C//DTD SVG 1.1//EN" "http://www.w3.org/Graphics/SVG/1.1/DTD/svg11.dtd" >
<svg xmlns="http://www.w3.org/2000/svg">
<metadata>Generated by IcoMoon</metadata>
<defs>
<font id="unicons" horiz-adv-x="1024">
<font-face units-per-em="1024" ascent="960" descent="-64" />
<missing-glyph horiz-adv-x="1024" />
<glyph unicode="&#x20;" horiz-adv-x="512" d="" />
<glyph unicode="&#xe900;" glyph-name="apps" d="M426.667 405.333h-298.667c-23.564 0-42.667-19.103-42.667-42.667v0-298.667c0-23.564 19.103-42.667 42.667-42.667v0h298.667c23.564 0 42.667 19.103 42.667 42.667v0 298.667c0 23.564-19.103 42.667-42.667 42.667v0zM384 106.667h-213.333v213.333h213.333zM896 874.667h-298.667c-23.564 0-42.667-19.103-42.667-42.667v0-298.667c0-23.564 19.103-42.667 42.667-42.667v0h298.667c23.564 0 42.667 19.103 42.667 42.667v0 298.667c0 23.564-19.103 42.667-42.667 42.667v0zM853.333 576h-213.333v213.333h213.333zM896 405.333h-298.667c-23.564 0-42.667-19.103-42.667-42.667v0-298.667c0-23.564 19.103-42.667 42.667-42.667v0h298.667c23.564 0 42.667 19.103 42.667 42.667v0 298.667c0 23.564-19.103 42.667-42.667 42.667v0zM853.333 106.667h-213.333v213.333h213.333zM426.667 874.667h-298.667c-23.564 0-42.667-19.103-42.667-42.667v0-298.667c0-23.564 19.103-42.667 42.667-42.667v0h298.667c23.564 0 42.667 19.103 42.667 42.667v0 298.667c0 23.564-19.103 42.667-42.667 42.667v0zM384 576h-213.333v213.333h213.333z" />
<glyph unicode="&#xe901;" glyph-name="arrow-down" d="M755.627 478.293c-7.733 7.795-18.45 12.621-30.293 12.621s-22.56-4.826-30.291-12.618l-0.003-0.003-140.373-140.8v323.84c0 23.564-19.103 42.667-42.667 42.667s-42.667-19.103-42.667-42.667v0-323.84l-140.373 140.8c-7.753 7.753-18.463 12.548-30.293 12.548-23.661 0-42.841-19.181-42.841-42.841 0-11.83 4.795-22.541 12.548-30.293l213.333-213.333c3.937-3.773 8.616-6.808 13.791-8.859l0.289-0.101c4.771-2.163 10.345-3.423 16.213-3.423s11.443 1.26 16.466 3.525l-0.253-0.102c5.464 2.152 10.143 5.187 14.095 8.974l-0.015-0.014 213.333 213.333c7.795 7.733 12.621 18.45 12.621 30.293s-4.826 22.56-12.618 30.291l-0.003 0.003z" />
<glyph unicode="&#xe902;" glyph-name="arrow-right" d="M764.587 464.213c-2.152 5.464-5.187 10.143-8.974 14.095l0.014-0.015-213.333 213.333c-7.753 7.753-18.463 12.548-30.293 12.548-23.661 0-42.841-19.181-42.841-42.841 0-11.83 4.795-22.541 12.548-30.293v0l140.8-140.373h-323.84c-23.564 0-42.667-19.103-42.667-42.667s19.103-42.667 42.667-42.667v0h323.84l-140.8-140.373c-7.795-7.733-12.621-18.45-12.621-30.293s4.826-22.56 12.618-30.291l0.003-0.003c7.733-7.795 18.45-12.621 30.293-12.621s22.56 4.826 30.291 12.618l213.336 213.336c3.773 3.937 6.808 8.616 8.859 13.791l0.101 0.289c2.024 4.793 3.201 10.366 3.201 16.213s-1.176 11.42-3.305 16.495l0.105-0.281z" />
<glyph unicode="&#xe903;" glyph-name="arrow-up" d="M755.627 478.293l-213.333 213.333c-3.937 3.773-8.616 6.808-13.791 8.859l-0.289 0.101c-4.793 2.024-10.366 3.201-16.213 3.201s-11.42-1.176-16.495-3.305l0.281 0.105c-5.464-2.152-10.143-5.187-14.095-8.974l0.015 0.014-213.333-213.333c-7.753-7.753-12.548-18.463-12.548-30.293 0-23.661 19.181-42.841 42.841-42.841 11.83 0 22.541 4.795 30.293 12.548v0l140.373 140.8v-323.84c0-23.564 19.103-42.667 42.667-42.667s42.667 19.103 42.667 42.667v0 323.84l140.373-140.8c7.733-7.795 18.45-12.621 30.293-12.621s22.56 4.826 30.291 12.618l0.003 0.003c7.795 7.733 12.621 18.45 12.621 30.293s-4.826 22.56-12.618 30.291l-0.003 0.003z" />
<glyph unicode="&#xe904;" glyph-name="briefcase-alt" d="M810.667 682.667h-128v42.667c0 70.692-57.308 128-128 128v0h-85.333c-70.692 0-128-57.308-128-128v0-42.667h-128c-70.692 0-128-57.308-128-128v0-384c0-70.692 57.308-128 128-128v0h597.333c70.692 0 128 57.308 128 128v0 384c0 70.692-57.308 128-128 128v0zM426.667 725.333c0 23.564 19.103 42.667 42.667 42.667v0h85.333c23.564 0 42.667-19.103 42.667-42.667v0-42.667h-170.667zM853.333 170.667c0-23.564-19.103-42.667-42.667-42.667v0h-597.333c-23.564 0-42.667 19.103-42.667 42.667v0 234.667c35.13-14.525 77.848-28.288 121.812-38.851l6.188-1.255v-25.173c0-23.564 19.103-42.667 42.667-42.667s42.667 19.103 42.667 42.667v0 8.96c38.285-5.502 82.664-8.751 127.762-8.959l0.238-0.001c45.336 0.209 89.715 3.458 133.18 9.555l-5.18-0.595v-8.96c0-23.564 19.103-42.667 42.667-42.667s42.667 19.103 42.667 42.667v0 25.173c50.15 11.818 92.868 25.582 134.081 42.285l-6.081-2.178zM853.333 498.773c-35.358-15.502-77.995-30.106-121.974-41.359l-6.026-1.308v13.227c0 23.564-19.103 42.667-42.667 42.667s-42.667-19.103-42.667-42.667v0-31.573c-38.469-6.11-82.827-9.601-128-9.601s-89.531 3.491-132.818 10.218l4.818-0.616v31.573c0 23.564-19.103 42.667-42.667 42.667s-42.667-19.103-42.667-42.667v0-14.080c-50.005 12.561-92.642 27.165-133.649 44.832l5.649-2.166v56.747c0 23.564 19.103 42.667 42.667 42.667v0h597.333c23.564 0 42.667-19.103 42.667-42.667v0z" />
<glyph unicode="&#xe905;" glyph-name="calendar-alt" d="M512 149.333c23.564 0 42.667 19.103 42.667 42.667s-19.103 42.667-42.667 42.667c-23.564 0-42.667-19.103-42.667-42.667v0c0-23.564 19.103-42.667 42.667-42.667v0zM725.333 149.333c23.564 0 42.667 19.103 42.667 42.667s-19.103 42.667-42.667 42.667c-23.564 0-42.667-19.103-42.667-42.667v0c0-23.564 19.103-42.667 42.667-42.667v0zM725.333 320c23.564 0 42.667 19.103 42.667 42.667s-19.103 42.667-42.667 42.667c-23.564 0-42.667-19.103-42.667-42.667v0c0-23.564 19.103-42.667 42.667-42.667v0zM512 320c23.564 0 42.667 19.103 42.667 42.667s-19.103 42.667-42.667 42.667c-23.564 0-42.667-19.103-42.667-42.667v0c0-23.564 19.103-42.667 42.667-42.667v0zM810.667 832h-42.667v42.667c0 23.564-19.103 42.667-42.667 42.667s-42.667-19.103-42.667-42.667v0-42.667h-341.333v42.667c0 23.564-19.103 42.667-42.667 42.667s-42.667-19.103-42.667-42.667v0-42.667h-42.667c-70.692 0-128-57.308-128-128v0-597.333c0-70.692 57.308-128 128-128v0h597.333c70.692 0 128 57.308 128 128v0 597.333c0 70.692-57.308 128-128 128v0zM853.333 106.667c0-23.564-19.103-42.667-42.667-42.667v0h-597.333c-23.564 0-42.667 19.103-42.667 42.667v0 384h682.667zM853.333 576h-682.667v128c0 23.564 19.103 42.667 42.667 42.667v0h42.667v-42.667c0-23.564 19.103-42.667 42.667-42.667s42.667 19.103 42.667 42.667v0 42.667h341.333v-42.667c0-23.564 19.103-42.667 42.667-42.667s42.667 19.103 42.667 42.667v0 42.667h42.667c23.564 0 42.667-19.103 42.667-42.667v0zM298.667 320c23.564 0 42.667 19.103 42.667 42.667s-19.103 42.667-42.667 42.667c-23.564 0-42.667-19.103-42.667-42.667v0c0-23.564 19.103-42.667 42.667-42.667v0zM298.667 149.333c23.564 0 42.667 19.103 42.667 42.667s-19.103 42.667-42.667 42.667c-23.564 0-42.667-19.103-42.667-42.667v0c0-23.564 19.103-42.667 42.667-42.667v0z" />
<glyph unicode="&#xe906;" glyph-name="css3-simple" d="M886.272 816.458c-7.886 9.52-19.709 15.539-32.938 15.542h-597.334c-23.564 0-42.667-19.103-42.667-42.667s19.103-42.667 42.667-42.667v0h545.542l-33.32-170.667h-554.888c-23.564 0-42.667-19.103-42.667-42.667s19.103-42.667 42.667-42.667v0h538.229l-49.604-254.083-269.792-85.187-230.833 72.5 8.687 45.437c0.481 2.405 0.757 5.17 0.757 8 0 23.568-19.105 42.673-42.673 42.673-20.738 0-38.021-14.793-41.872-34.403l-0.044-0.27-15.792-82.771c-0.479-2.4-0.753-5.16-0.753-7.983 0-19.002 12.414-35.104 29.575-40.639l0.302-0.084 279.897-87.898c3.823-1.242 8.223-1.958 12.79-1.958 4.591 0 9.013 0.724 13.159 2.064l-0.302-0.085 306.771 96.853c14.817 4.792 25.924 17.063 28.975 32.247l0.046 0.273 114.354 585.813c0.502 2.457 0.79 5.281 0.79 8.172 0 10.333-3.673 19.808-9.784 27.191l0.057-0.071z" />
<glyph unicode="&#xe907;" glyph-name="download" d="M353.707 392.96c-7.795-7.733-12.621-18.45-12.621-30.293s4.826-22.56 12.618-30.291l128.003-128.003c7.733-7.795 18.45-12.621 30.293-12.621s22.56 4.826 30.291 12.618l128.003 128.003c7.753 7.753 12.548 18.463 12.548 30.293 0 23.661-19.181 42.841-42.841 42.841-11.83 0-22.541-4.795-30.293-12.548v0l-55.040-55.467v494.507c0 23.564-19.103 42.667-42.667 42.667s-42.667-19.103-42.667-42.667v0-494.507l-55.040 55.467c-7.733 7.795-18.45 12.621-30.293 12.621s-22.56-4.826-30.291-12.618l-0.003-0.003zM768 576h-85.333c-23.564 0-42.667-19.103-42.667-42.667s19.103-42.667 42.667-42.667v0h85.333c23.564 0 42.667-19.103 42.667-42.667v0-298.667c0-23.564-19.103-42.667-42.667-42.667v0h-512c-23.564 0-42.667 19.103-42.667 42.667v0 298.667c0 23.564 19.103 42.667 42.667 42.667v0h85.333c23.564 0 42.667 19.103 42.667 42.667s-19.103 42.667-42.667 42.667v0h-85.333c-70.692 0-128-57.308-128-128v0-298.667c0-70.692 57.308-128 128-128v0h512c70.692 0 128 57.308 128 128v0 298.667c0 70.692-57.308 128-128 128v0z" />
<glyph unicode="&#xe908;" glyph-name="envelope" d="M810.667 789.333h-597.333c-70.692 0-128-57.308-128-128v0-426.667c0-70.692 57.308-128 128-128v0h597.333c70.692 0 128 57.308 128 128v0 426.667c0 70.692-57.308 128-128 128v0zM793.173 704l-250.88-250.88c-7.733-7.795-18.45-12.621-30.293-12.621s-22.56 4.826-30.291 12.618l-250.883 250.883zM853.333 234.667c0-23.564-19.103-42.667-42.667-42.667v0h-597.333c-23.564 0-42.667 19.103-42.667 42.667v0 409.173l250.88-250.88c23.158-23.13 55.135-37.434 90.453-37.434s67.296 14.304 90.455 37.435l250.879 250.879z" />
<glyph unicode="&#xe909;" glyph-name="estate" d="M853.333 618.667v0l-256 224.427c-22.54 20.227-52.493 32.594-85.333 32.594s-62.793-12.368-85.453-32.7l0.119 0.105-256-224.427c-26.239-23.54-42.671-57.556-42.671-95.409 0-0.358 0.001-0.715 0.004-1.072v0.055-372.907c0-70.692 57.308-128 128-128v0h512c70.692 0 128 57.308 128 128v0 373.333c0.001 0.176 0.001 0.385 0.001 0.593 0 37.852-16.43 71.867-42.548 95.301l-0.12 0.105zM597.333 106.667h-170.667v213.333c0 23.564 19.103 42.667 42.667 42.667v0h85.333c23.564 0 42.667-19.103 42.667-42.667v0zM810.667 149.333c0-23.564-19.103-42.667-42.667-42.667v0h-85.333v213.333c0 70.692-57.308 128-128 128v0h-85.333c-70.692 0-128-57.308-128-128v0-213.333h-85.333c-23.564 0-42.667 19.103-42.667 42.667v0 373.333c0.017 12.731 5.606 24.153 14.46 31.96l0.047 0.040 256 224c7.473 6.59 17.347 10.613 28.16 10.613s20.687-4.023 28.207-10.653l-0.047 0.040 256-224c8.9-7.847 14.49-19.269 14.507-31.997v-0.003z" />
<glyph unicode="&#xe90a;" glyph-name="figma" d="M853.248 448.043c0-94.209-76.372-170.581-170.581-170.581s-170.581 76.372-170.581 170.581c0 94.209 76.372 170.581 170.581 170.581s170.581-76.372 170.581-170.581zM170.667 106.581c0-94.379 76.416-170.581 170.624-170.581s170.581 76.416 170.581 170.581v512.043l170.837-0.043c94.251 0 170.624 76.459 170.624 170.624s-76.416 170.795-170.624 170.795h-341.419c-94.251 0-170.624-76.416-170.624-170.581s76.416-170.581 170.624-170.581c-94.251-0.256-170.624-76.629-170.624-170.837s76.416-170.581 170.624-170.581c-94.251 0-170.624-76.416-170.624-170.837z" />
<glyph unicode="&#xe90b;" glyph-name="file-alt" d="M384 533.333h42.667c23.564 0 42.667 19.103 42.667 42.667s-19.103 42.667-42.667 42.667v0h-42.667c-23.564 0-42.667-19.103-42.667-42.667s19.103-42.667 42.667-42.667v0zM384 448c-23.564 0-42.667-19.103-42.667-42.667s19.103-42.667 42.667-42.667v0h256c23.564 0 42.667 19.103 42.667 42.667s-19.103 42.667-42.667 42.667v0zM853.333 578.56c-0.496 4.292-1.396 8.191-2.678 11.913l0.118-0.393v3.84c-2.174 4.59-4.887 8.531-8.128 11.969l0.021-0.023-256 256c-3.415 3.219-7.356 5.932-11.671 7.988l-0.276 0.118c-0.577 0.086-1.243 0.136-1.92 0.136s-1.343-0.049-1.994-0.145l0.074 0.009c-4.056 2.368-8.817 4.028-13.894 4.674l-0.186 0.019h-258.133c-70.692 0-128-57.308-128-128v0-597.333c0-70.692 57.308-128 128-128v0h426.667c70.692 0 128 57.308 128 128v0 426.667s0 0 0 2.56zM597.333 729.173l110.507-110.507h-67.84c-23.564 0-42.667 19.103-42.667 42.667v0zM768 149.333c0-23.564-19.103-42.667-42.667-42.667v0h-426.667c-23.564 0-42.667 19.103-42.667 42.667v0 597.333c0 23.564 19.103 42.667 42.667 42.667v0h213.333v-128c0-70.692 57.308-128 128-128v0h128zM640 277.333h-256c-23.564 0-42.667-19.103-42.667-42.667s19.103-42.667 42.667-42.667v0h256c23.564 0 42.667 19.103 42.667 42.667s-19.103 42.667-42.667 42.667v0z" />
<glyph unicode="&#xe90c;" glyph-name="github-alt" d="M429.667 85.209c-0.004 23.563-19.106 42.664-42.67 42.664-2.731 0-5.403-0.257-7.992-0.747l0.266 0.042c-55.854-10.25-126.375-11.792-145.125 40.875-17.031 41.775-43.887 76.559-77.799 102.615l-0.576 0.425c-2.709 1.485-5.033 3.031-7.213 4.75l0.109-0.083c-6.258 16.178-21.655 27.46-39.698 27.542h-0.218c-0.005 0-0.010 0-0.015 0-23.488 0-42.542-18.986-42.651-42.448v-0.010c-0.167-34.792 34.603-57.083 48.708-64.625 16.207-16.282 29.477-35.503 38.938-56.793l0.479-1.207c15.542-43.667 60.708-109.917 190.542-101.376 0.043-1.5 0.083-2.917 0.104-4.208l0.187-11.417c0-23.564 19.103-42.667 42.667-42.667s42.667 19.103 42.667 42.667v0l-0.208 13.583c-0.208 8.086-0.5 19.794-0.5 50.419zM884.792 730.585c1.354 5.333 2.688 11.25 3.855 17.917 1.767 11.56 2.777 24.897 2.777 38.47 0 36.803-7.422 71.873-20.852 103.794l0.658-1.763c-4.759 11.713-14.216 20.674-25.97 24.661l-0.301 0.089c-15.189 5.125-71.271 15.209-178.521-53.333-40.719 9.999-87.465 15.735-135.552 15.735s-94.833-5.736-139.593-16.56l4.041 0.825c-106.813 67.538-162.605 58.373-177.647 53.54-12.37-3.919-22.104-12.992-26.835-24.632l-0.102-0.285c-12.844-30.294-20.309-65.525-20.309-102.499 0-14.368 1.127-28.474 3.298-42.232l-0.198 1.523c1.042-5.458 2.167-10.5 3.334-15.125-33.447-44.168-53.577-100.033-53.577-160.599 0-0.976 0.005-1.951 0.016-2.924l-0.001 0.148c-0.009-0.936-0.014-2.043-0.014-3.151 0-12.743 0.663-25.331 1.957-37.731l-0.131 1.549c14.251-196.375 142.251-255.334 231.437-275.584-1.854-5.333-3.541-11.041-5.041-17.083-0.77-3.032-1.212-6.514-1.212-10.098 0-23.57 19.107-42.676 42.676-42.676 19.905 0 36.628 13.628 41.346 32.062l0.064 0.296c2.889 14.779 9.976 27.573 19.953 37.453l0.006 0.006c8.941 7.857 14.554 19.315 14.554 32.085 0 21.861-16.45 39.88-37.646 42.354l-0.199 0.019c-147.375 16.833-211.354 76.875-220.979 209-0.925 8.574-1.452 18.519-1.452 28.588 0 1.024 0.005 2.047 0.016 3.068l-0.001-0.156c-0.015 0.881-0.024 1.922-0.024 2.964 0 42.783 14.79 82.113 39.536 113.153l-0.283-0.367c2.799 3.651 5.535 6.869 8.419 9.945l-0.065-0.070c6.734 7.511 10.852 17.488 10.852 28.428 0 5.495-1.039 10.746-2.931 15.57l0.1-0.29c-2.588 6.648-4.879 14.598-6.477 22.796l-0.148 0.912c-1.252 7.855-1.967 16.912-1.967 26.137 0 15.196 1.941 29.939 5.588 43.994l-0.267-1.214c39.346-11.308 73.662-28.539 103.91-50.949l-0.87 0.616c6.706-4.522 14.968-7.219 23.86-7.219 4.076 0 8.019 0.567 11.756 1.625l-0.303-0.073c39.466 11.138 84.79 17.541 131.609 17.541 46.876 0 92.253-6.419 135.3-18.425l-3.534 0.842c3.402-0.97 7.309-1.528 11.347-1.528 8.994 0 17.341 2.767 24.237 7.497l-0.146-0.095c29.258 21.891 63.419 39.261 100.339 50.21l2.286 0.582c3.464-12.909 5.453-27.729 5.453-43.014 0-8.579-0.627-17.012-1.837-25.255l0.113 0.936c-1.742-9.838-4.242-18.54-7.532-26.842l0.323 0.925c-1.792-4.534-2.83-9.786-2.83-15.28 0-10.939 4.117-20.917 10.887-28.468l-0.035 0.040c3.292-3.708 6.583-7.708 9.542-11.458 24.007-29.811 38.533-68.138 38.533-109.857 0-1.515-0.019-3.025-0.057-4.531l0.004 0.223c0.005-0.623 0.007-1.359 0.007-2.096 0-10.944-0.585-21.751-1.727-32.392l0.115 1.321c-9.396-130.375-73.625-190.458-221.687-207.333-21.395-2.507-37.839-20.53-37.839-42.393 0-12.779 5.618-24.247 14.52-32.066l0.048-0.041c10.288-10.143 17.43-23.454 19.842-38.35l0.053-0.4c2.523-9.595 3.972-20.61 3.972-31.964 0-1.053-0.012-2.103-0.037-3.15l0.003 0.156v-99.584c-0.418-27.624-0.418-48.332-0.418-57.833 0-23.564 19.103-42.667 42.667-42.667s42.667 19.103 42.667 42.667v0c0 9.25 0 29.542 0.417 57.167v100.25c0.022 1.128 0.035 2.459 0.035 3.792 0 18.539-2.422 36.513-6.967 53.621l0.329-1.454c-1.642 7.28-3.347 13.22-5.339 19.027l0.381-1.277c132.626 22.637 232.318 136.716 232.333 274.082v0.002c1.254 11.451 1.969 24.731 1.969 38.179 0 0.962-0.004 1.924-0.011 2.885l0.001-0.147c0.022 1.25 0.034 2.725 0.034 4.203 0 60.109-20.275 115.483-54.36 159.656l0.451-0.608z" />
<glyph unicode="&#xe90d;" glyph-name="gitlab" d="M936.076 411.075l-135.649 417.685c-4.846 14.254-18.112 24.327-33.731 24.327-0.121 0-0.242-0.001-0.363-0.002h0.018c-0.058 0-0.127 0.001-0.196 0.001-15.608 0-28.833-10.198-33.378-24.294l-0.069-0.248-85.619-263.589h-270.156l-85.779 263.607c-4.617 14.336-17.838 24.527-33.439 24.527-0.070 0-0.14 0-0.21-0.001h-0.179c-15.741-0.004-29.106-10.173-33.889-24.3l-0.074-0.252-89.972-277.513-45.604-139.947c-1.602-4.734-2.527-10.186-2.527-15.855 0-16.914 8.234-31.905 20.912-41.183l0.144-0.1 394.143-286.332c0.532-0.376 1.152-0.763 1.793-1.115l0.103-0.052 0.268-0.164 0.162-0.091 0.128-0.052 0.093-0.037 0.227-0.096 2.249-0.94 0.208-0.076 0.083-0.021 0.273-0.065 0.104-0.023c0.474-0.143 0.964-0.247 1.453-0.357l0.568-0.138 0.083-0.021 0.187-0.043 0.31-0.065 0.25-0.021 0.043-0.003h0.013c0.844-0.136 1.822-0.218 2.819-0.228h0.044c1.007 0.009 1.988 0.091 2.946 0.241l-0.113-0.015h0.011l0.047 0.003 0.253 0.021 0.312 0.065 0.185 0.043 0.081 0.021 0.581 0.141 1.435 0.352 0.099 0.021 0.281 0.070 0.085 0.018 0.213 0.078 0.204 0.086 1.047 0.435 1.435 0.602 0.171 0.093 0.003 0.003 0.271 0.166c0.741 0.402 1.357 0.786 1.95 1.201l-0.064-0.043 0.154 0.091 0.039 0.026 0.185 0.114 393.831 286.107c12.816 9.378 21.045 24.365 21.045 41.274 0 5.67-0.925 11.124-2.634 16.22l0.105-0.36zM766.604 802.745l77.232-237.789h-154.47zM257.271 802.747l77.377-237.792h-154.467zM129.963 386.458c-2.726 2-4.476 5.191-4.476 8.792 0 1.211 0.198 2.377 0.564 3.465l-0.022-0.077 33.898 104.034 248.399-318.464zM193.707 524.745h154.018l109.799-338.234zM499.399 68.364l-0.229 0.195-0.495 0.427-0.838 0.771 0.070-0.057 0.093-0.079c0.555-0.533 1.148-1.041 1.768-1.513l0.050-0.036 0.020-0.016 0.085-0.076zM511.923 149.167l-121.928 375.578h244.026zM525.146 68.987l-0.45-0.388-0.052-0.047-0.227-0.193-0.521-0.384 0.085 0.073 0.016 0.013c0.667 0.505 1.258 1.011 1.815 1.55l-0.006-0.005 0.073 0.060 0.091 0.078zM676.305 524.745h154.008l-263.964-338.214zM893.917 386.466l-278.323-202.193 248.479 318.375 33.766-103.989c0.345-1.014 0.544-2.183 0.544-3.398 0-3.6-1.747-6.791-4.439-8.774l-0.030-0.021z" />
<glyph unicode="&#xe90e;" glyph-name="graduation-cap" d="M916.907 525.227l-42.667 23.467-384 213.333h-4.693c-2.291 1.003-5 1.884-7.806 2.504l-0.3 0.056h-15.787c-3.277-0.679-6.132-1.562-8.866-2.681l0.333 0.121h-4.693l-384-213.333c-13.010-7.474-21.63-21.29-21.63-37.12s8.62-29.646 21.423-37.010l0.207-0.11 106.24-58.88v-202.24c0-70.692 57.308-128 128-128v0h341.333c70.692 0 128 57.308 128 128v0 202.24l85.333 47.787v-122.027c0-23.564 19.103-42.667 42.667-42.667s42.667 19.103 42.667 42.667v0 146.773c-0.028 15.854-8.699 29.676-21.55 37.010l-0.21 0.11zM682.667 213.333c0-23.564-19.103-42.667-42.667-42.667v0h-341.333c-23.564 0-42.667 19.103-42.667 42.667v0 154.88l192.427-106.667 6.4-2.56h3.84c1.602-0.213 3.453-0.335 5.333-0.335s3.732 0.122 5.548 0.357l-0.214-0.023c1.602-0.213 3.453-0.335 5.333-0.335s3.732 0.122 5.548 0.357l-0.214-0.023h3.84c2.419 0.52 4.561 1.406 6.484 2.609l-0.084-0.049 192.427 106.667zM469.333 347.307l-296.107 164.693 296.107 164.693 296.107-164.693z" />
<glyph unicode="&#xe90f;" glyph-name="html5" d="M135.787 874.662l68.474-768.029 307.281-85.305 308.125 85.422 68.547 767.912zM739.203 623.471h-360.458l8.609-96.458h343.276l-25.849-289.195-193.213-53.563-192.953 53.562-13.198 147.901h94.557l6.703-75.125 104.995-28.297 105.057 28.357 10.938 122.164h-326.458l-25.406 284.849h471.834z" />
<glyph unicode="&#xe910;" glyph-name="javascript" d="M617.728 324.996c-5.039-0.52-10.889-0.817-16.808-0.817-27.864 0-54.191 6.577-77.515 18.263l1-0.454c-12.865 10.355-21.425 25.607-22.832 42.882l-0.014 0.219c-0.057 5.184-4.273 9.364-9.465 9.364-0.072 0-0.144-0.001-0.215-0.002h0.011c-13.508 0.164-27.013 0.128-40.518 0.018-0.274 0.030-0.593 0.047-0.915 0.047-4.619 0-8.427-3.474-8.953-7.952l-0.004-0.042c-0.087-1.562-0.137-3.39-0.137-5.23 0-29.035 12.402-55.174 32.197-73.407l0.070-0.064c26.096-20.516 58.871-33.639 94.609-35.741l0.464-0.022c11.895-1.458 25.665-2.291 39.63-2.291 24.228 0 47.87 2.505 70.683 7.27l-2.235-0.39c28.357 5.417 52.87 19.158 71.566 38.548l0.039 0.040c13.875 17.001 22.282 38.941 22.282 62.844 0 11.578-1.972 22.696-5.599 33.035l0.214-0.699c-9.461 22.752-28.495 39.885-51.935 46.563l-0.562 0.137c-54.646 19.174-113.677 17.724-169.387 32.294-9.672 3.044-21.489 6.349-25.799 16.588-1.269 3.551-2.002 7.648-2.002 11.916 0 11.686 5.497 22.087 14.046 28.76l0.081 0.061c15.552 9.043 34.226 14.381 54.146 14.381 1.196 0 2.387-0.019 3.574-0.057l-0.173 0.004c4.879 0.487 10.546 0.765 16.278 0.765 23.088 0 45.124-4.505 65.276-12.684l-1.163 0.417c15.239-9.077 26.075-24.193 29.247-41.963l0.055-0.371c0.157-5.371 4.374-9.707 9.68-10.053l0.031-0.002c13.411-0.273 26.828-0.073 40.239-0.091 0.347-0.044 0.748-0.069 1.155-0.069 4.482 0 8.255 3.032 9.382 7.157l0.016 0.068c0.001 0.203 0.002 0.444 0.002 0.685 0 37.708-20.099 70.721-50.169 88.91l-0.464 0.261c-30.831 14.576-66.978 23.085-105.112 23.085-11.352 0-22.527-0.754-33.48-2.215l1.282 0.14v0.003c-35.809-1.512-68.11-15.391-93.006-37.443l0.157 0.137c-15.348-16.506-24.766-38.706-24.766-63.106 0-12.025 2.288-23.516 6.452-34.062l-0.219 0.629c9.983-21.863 28.614-38.311 51.401-45.152l0.583-0.15c54.464-19.672 114.156-13.359 169.149-30.755 10.716-3.636 23.195-9.196 26.479-21.123 0.782-3.041 1.231-6.532 1.231-10.128 0-11.848-4.875-22.558-12.728-30.233l-0.008-0.008c-18.999-11.977-42.111-19.083-66.883-19.083-3.392 0-6.752 0.133-10.077 0.395l0.439-0.028zM866.001 685.332q-159.504 90.197-319.081 180.232c-10.059 5.727-22.1 9.103-34.93 9.103s-24.871-3.376-35.284-9.288l0.354 0.185q-158.956-89.762-317.929-179.516c-20.456-11.311-34.122-32.683-34.312-57.262v-361.595c0.367-25.034 14.563-46.668 35.275-57.64l0.36-0.174c30.443-16.57 60.021-34.828 91.016-50.297 17.836-9.722 39.064-15.439 61.628-15.439 20.038 0 39.023 4.509 55.996 12.567l-0.792-0.339c25.744 16.316 42.586 44.654 42.586 76.927 0 1.774-0.051 3.535-0.151 5.284l0.011-0.242c0.237 119.325 0.036 238.656 0.091 357.984 0.074 0.443 0.117 0.954 0.117 1.475 0 5.032-3.964 9.139-8.94 9.368l-0.021 0.001c-13.542 0.219-27.104 0.128-40.646 0.036-0.239 0.023-0.517 0.036-0.798 0.036-4.933 0-8.932-3.999-8.932-8.932 0-0.078 0.001-0.155 0.003-0.232v0.011c-0.182-118.56 0.037-237.154-0.109-355.732 0-0.045 0-0.099 0-0.152 0-17.080-10.671-31.668-25.71-37.461l-0.274-0.093c-5.549-1.702-11.927-2.682-18.534-2.682-12.724 0-24.599 3.635-34.644 9.922l0.274-0.16q-42.305 23.893-84.608 47.782c-3.448 1.662-5.784 5.13-5.784 9.143 0 0.315 0.014 0.628 0.043 0.936l-0.003-0.040q0 178.937 0 357.856c-0.025 0.279-0.039 0.603-0.039 0.93 0 4.545 2.744 8.448 6.666 10.144l0.072 0.028q158.435 89.232 316.809 178.652c1.738 1.2 3.889 1.918 6.208 1.918 2.33 0 4.492-0.724 6.271-1.96l-0.036 0.024q158.429-89.26 316.844-178.583c3.977-1.771 6.699-5.689 6.699-10.242 0-0.321-0.014-0.639-0.040-0.953l0.003 0.041q-0.027-178.905-0.036-357.839c0.027-0.278 0.042-0.601 0.042-0.928 0-4.022-2.299-7.506-5.655-9.211l-0.059-0.027q-156.008-88.215-312.182-176.175c-4.974-2.771-10.862-7.229-16.68-3.872-27.268 15.435-54.203 31.469-81.38 47.050-1.462 1.127-3.32 1.807-5.336 1.807-1.646 0-3.186-0.453-4.503-1.24l0.040 0.022c-10.695-6.401-23.109-12.321-36.089-17.068l-1.546-0.495c-5.891-2.385-13.138-3.065-17.193-8.529 5.078-5.512 11.194-9.98 18.050-13.109l0.351-0.143q47.676-27.605 95.403-55.162c10.488-6.681 23.27-10.648 36.979-10.648 12.35 0 23.949 3.22 34.001 8.866l-0.35-0.181q158.98 89.643 317.946 179.367c21.054 11.164 35.243 32.779 35.653 57.747l0.001 0.056v361.567c-0.192 24.126-13.361 45.133-32.862 56.404l-0.317 0.169z" />
<glyph unicode="&#xe911;" glyph-name="linkedin-alt" d="M746.667 576.043c-0.029 0-0.064 0-0.099 0-40.051 0-77.724-10.184-110.57-28.104l1.21 0.604c-6.28 16.213-21.75 27.5-39.856 27.5-0.007 0-0.013 0-0.020 0h-170.666c-0.007 0-0.016 0-0.024 0-23.551 0-42.642-19.092-42.642-42.642 0-0.009 0-0.017 0-0.026v0.001-512c0-0.007 0-0.016 0-0.025 0-23.55 19.091-42.642 42.642-42.642 0.009 0 0.017 0 0.026 0h170.665c0.007 0 0.016 0 0.025 0 23.55 0 42.642 19.091 42.642 42.642 0 0.009 0 0.017 0 0.026v-0.001 234.667c0 23.564 19.103 42.667 42.667 42.667s42.667-19.103 42.667-42.667v0-234.667c0-0.007 0-0.016 0-0.025 0-23.55 19.091-42.642 42.642-42.642 0.009 0 0.017 0 0.026 0h170.665c0.007 0 0.016 0 0.025 0 23.55 0 42.642 19.091 42.642 42.642 0 0.009 0 0.017 0 0.026v-0.001 320c-0.166 129.536-105.131 234.5-234.65 234.667h-0.016zM896 64.043h-85.333v192c0 70.692-57.308 128-128 128s-128-57.308-128-128v0-192h-85.333v426.667h85.333v-30c0.014-23.565 19.12-42.662 42.687-42.662 13.437 0 25.424 6.209 33.249 15.914l0.064 0.082c27.453 34.644 69.527 56.668 116.745 56.668 82.064 0 148.59-66.526 148.59-148.59 0-0.262-0.001-0.524-0.002-0.785v0.040zM298.667 576.043h-170.667c-0.007 0-0.016 0-0.024 0-23.551 0-42.642-19.092-42.642-42.642 0-0.009 0-0.017 0-0.026v0.001-512c0-0.007 0-0.016 0-0.025 0-23.55 19.091-42.642 42.642-42.642 0.009 0 0.017 0 0.026 0h170.665c0.007 0 0.016 0 0.025 0 23.55 0 42.642 19.091 42.642 42.642 0 0.009 0 0.017 0 0.026v-0.001 512c0 0.007 0 0.016 0 0.024 0 23.551-19.092 42.642-42.642 42.642-0.009 0-0.017 0-0.026 0h0.001zM256 64.043h-85.333v426.667h85.333zM213.958 894.208c-2.464 0.157-5.342 0.246-8.242 0.246-76.179 0-137.934-61.755-137.934-137.934s61.755-137.934 137.934-137.934c2.049 0 4.087 0.045 6.113 0.133l-0.289-0.010h1.208c2.445-0.155 5.302-0.243 8.18-0.243 76.193 0 137.959 61.766 137.959 137.959s-61.766 137.959-137.959 137.959c-2.452 0-4.89-0.064-7.31-0.19l0.339 0.014zM212.75 704.043h-1.209c-1.887-0.242-4.070-0.38-6.285-0.38-28.794 0-52.136 23.342-52.136 52.136 0 0.232 0.002 0.464 0.005 0.695v-0.035c0 31.834 23.875 52.417 60.833 52.417 2.089 0.294 4.502 0.461 6.954 0.461 29.066 0 52.629-23.563 52.629-52.629 0-0.088 0-0.175-0.001-0.263v0.013c0-31.833-23.875-52.416-60.791-52.416z" />
<glyph unicode="&#xe912;" glyph-name="map-marker" d="M512 874.667c-188.513 0-341.333-152.82-341.333-341.333v0c0-230.4 300.8-490.667 313.6-501.76 7.409-6.367 17.119-10.243 27.733-10.243s20.324 3.876 27.79 10.29l-0.057-0.048c14.933 11.093 313.6 271.36 313.6 501.76 0 188.513-152.82 341.333-341.333 341.333v0zM512 121.6c-90.88 85.333-256 269.227-256 411.733 0 141.385 114.615 256 256 256s256-114.615 256-256v0c0-142.507-165.12-326.827-256-411.733zM512 704c-94.257 0-170.667-76.41-170.667-170.667s76.41-170.667 170.667-170.667c94.257 0 170.667 76.41 170.667 170.667v0c0 94.257-76.41 170.667-170.667 170.667v0zM512 448c-47.128 0-85.333 38.205-85.333 85.333s38.205 85.333 85.333 85.333c47.128 0 85.333-38.205 85.333-85.333v0c0-47.128-38.205-85.333-85.333-85.333v0z" />
<glyph unicode="&#xe913;" glyph-name="message" d="M867.84 562.347l-597.333 298.667c-16.623 8.455-36.25 13.409-57.034 13.409-70.692 0-128-57.308-128-128 0-18.754 4.033-36.566 11.279-52.615l-0.326 0.807 102.4-229.12c2.226-5.165 3.52-11.178 3.52-17.493s-1.294-12.328-3.632-17.788l0.112 0.295-102.4-229.12c-6.988-15.309-11.062-33.205-11.062-52.053 0-70.682 57.29-127.982 127.967-128h0.002c21.007 0.216 40.792 5.234 58.377 14.004l-0.777-0.351 597.333 298.667c42.133 21.534 70.477 64.63 70.477 114.347s-28.344 92.813-69.755 114.011l-0.722 0.336zM829.867 410.027l-597.333-298.667c-5.4-2.653-11.753-4.204-18.468-4.204-23.564 0-42.667 19.103-42.667 42.667 0 6.149 1.301 11.995 3.642 17.276l-0.108-0.272 101.973 229.12c1.116 2.475 2.276 5.589 3.254 8.782l0.159 0.605h293.973c23.564 0 42.667 19.103 42.667 42.667s-19.103 42.667-42.667 42.667v0h-293.973c-1.137 3.798-2.298 6.912-3.628 9.933l0.215-0.547-101.973 229.12c-2.234 5.009-3.535 10.855-3.535 17.004 0 23.564 19.103 42.667 42.667 42.667 6.715 0 13.068-1.551 18.72-4.315l-0.252 0.111 597.333-298.667c13.89-7.227 23.212-21.512 23.212-37.973s-9.323-30.746-22.976-37.861l-0.236-0.112z" />
<glyph unicode="&#xe914;" glyph-name="moon" d="M923.307 405.333c-7.322 6.086-16.821 9.78-27.183 9.78-6.385 0-12.443-1.403-17.881-3.916l0.264 0.11c-41.949-19.669-91.094-31.148-142.92-31.148-0.305 0-0.609 0-0.913 0.001h0.047c-191.117 0.238-346.098 154.619-347.306 345.485l-0.001 0.115c0.212 30.39 4.089 59.775 11.211 87.867l-0.544-2.533c0.509 2.473 0.8 5.315 0.8 8.226 0 23.564-19.103 42.667-42.667 42.667-5.344 0-10.459-0.983-15.173-2.777l0.293 0.098c-151.712-69.435-255.214-219.923-255.214-394.585 0-238.94 193.7-432.64 432.64-432.64 201.945 0 371.574 138.361 419.26 325.458l0.647 2.994c0.897 3.267 1.413 7.018 1.413 10.889 0 13.781-6.534 26.036-16.672 33.837l-0.1 0.074zM517.973 119.893c-190.756 1.389-344.856 156.348-344.856 347.298 0 108.795 50.024 205.905 128.325 269.586l0.637 0.502v-11.52c0.243-238.843 193.797-432.397 432.617-432.64h0.023c0.455-0.002 0.993-0.003 1.532-0.003 31.198 0 61.597 3.42 90.843 9.906l-2.776-0.517c-59.274-110.469-173.971-184.32-305.917-184.32-0.151 0-0.302 0-0.453 0h0.024z" />
<glyph unicode="&#xe915;" glyph-name="mouse" d="M512 704c-23.564 0-42.667-19.103-42.667-42.667v0-85.333c0-23.564 19.103-42.667 42.667-42.667s42.667 19.103 42.667 42.667v0 85.333c0 23.564-19.103 42.667-42.667 42.667v0zM512 874.667c-164.949 0-298.667-133.718-298.667-298.667v0-256c0-164.949 133.718-298.667 298.667-298.667s298.667 133.718 298.667 298.667v0 256c0 164.949-133.718 298.667-298.667 298.667v0zM725.333 320c0-117.821-95.513-213.333-213.333-213.333s-213.333 95.513-213.333 213.333v0 256c0 117.821 95.513 213.333 213.333 213.333s213.333-95.513 213.333-213.333v0z" />
<glyph unicode="&#xe916;" glyph-name="sass" horiz-adv-x="1365" d="M1174.741 371.371c1.664 0.043 3.627 0.085 5.632 0.085 35.584 0 69.248-8.277 99.115-23.040l-1.323 0.597c27.221-13.269 49.579-32.896 65.749-56.96l0.384-0.597c12.757-18.603 20.352-41.6 20.352-66.347 0-1.792-0.043-3.584-0.128-5.333v0.256c-1.323-24.704-12.544-46.507-29.781-61.781l-0.085-0.085c-9.429-9.259-20.821-16.512-33.493-21.12l-0.64-0.213q-10.667-2.133-11.733 3.2t9.6 11.733c19.285 11.691 33.237 30.549 38.315 52.779l0.128 0.555c0.128 1.792 0.213 3.883 0.213 6.016 0 13.269-3.157 25.813-8.747 36.907l0.213-0.469c-9.259 19.328-23.083 35.2-40.107 46.677l-0.427 0.256c-25.472 16.384-56.021 27.136-88.875 29.824l-0.683 0.043c-11.179 1.664-24.064 2.603-37.205 2.603-34.176 0-66.816-6.443-96.853-18.176l1.792 0.64c6.187-14.464 10.069-31.232 10.624-48.811v-0.213c-0.683-36.053-20.053-67.413-48.853-84.907l-0.469-0.256c-13.227-9.387-28.331-17.621-44.416-24.021l-1.493-0.512c-9.771-4.779-21.248-7.552-33.365-7.552-1.408 0-2.773 0.043-4.139 0.128h0.213q-40.491 8.491-19.2 70.4c6.187 17.963 14.848 33.536 25.813 47.232l-0.256-0.299c14.037 18.347 29.44 34.432 46.464 48.683l0.469 0.384-4.181 6.229c-7.808 13.312-14.976 28.8-20.736 44.971l-0.597 1.963q-6.4 21.333-10.667 40.491l-2.133 14.933-21.333-40.491q-27.733-51.2-53.333-89.557l-6.4-10.667c7.168-17.408 12.459-37.589 14.848-58.667l0.085-1.067c0.171-2.005 0.256-4.395 0.256-6.784 0-32.341-15.957-60.928-40.448-78.379l-0.299-0.213c-11.691-7.211-25.643-14.677-40.107-21.333l-2.56-1.067c-15.061-6.528-32.512-10.795-50.816-11.733h-0.384c-1.408-0.085-3.072-0.171-4.736-0.171-10.667 0-20.779 2.432-29.824 6.741l0.427-0.171c-5.419 4.651-8.832 11.477-8.832 19.115 0 3.883 0.896 7.595 2.475 10.88l-0.085-0.171c17.067 23.936 33.877 44.757 51.755 64.64l-0.555-0.64 46.933 59.691-8.491 19.2c-6.827 12.544-13.355 27.349-18.603 42.709l-0.597 2.048q-6.4 21.333-10.667 40.491l-2.133 14.933-21.333-51.2q-25.557-59.691-46.933-102.357-31.872-64-53.333-98.133l-4.267-6.4q-25.557-40.491-49.067-40.491t-31.872 29.867c-4.096 14.677-6.485 31.531-6.485 48.939 0 1.536 0 3.072 0.043 4.608v-0.213l4.267 29.867v-2.133q-17.067-40.491-34.133-74.624c-7.552-14.763-15.317-27.349-24.021-39.211l0.555 0.811c-8.789-9.216-21.163-14.933-34.859-14.933-0.128 0-0.213 0-0.341 0-0.896-0.085-1.92-0.085-2.944-0.085-10.795 0-20.608 4.096-28.032 10.795l0.043-0.043c-14.891 15.275-25.941 34.347-31.659 55.637l-0.213 0.896c-6.997 19.413-11.008 41.856-11.008 65.237 0 3.029 0.085 6.016 0.213 8.96v-0.427c3.371 33.963 10.155 65.067 20.096 94.72l-0.896-3.029-76.757-44.8v-2.133c11.136-23.125 17.664-50.261 17.664-78.933 0-5.248-0.213-10.453-0.64-15.573l0.043 0.683c-2.261-43.947-16.299-84.181-38.955-118.187l0.555 0.853c-23.765-37.717-58.027-66.859-98.731-83.712l-1.408-0.512c-22.912-10.283-49.707-16.299-77.867-16.299-17.835 0-35.157 2.389-51.541 6.912l1.365-0.299c-13.568 4.565-24.661 13.611-31.701 25.301l-0.128 0.256c-9.941 14.421-16.213 32.043-17.195 51.029v0.256c-0.469 4.309-0.725 9.301-0.725 14.379 0 21.888 4.992 42.624 13.909 61.099l-0.384-0.853c24.491 41.771 58.368 75.605 98.816 99.413l1.28 0.683c28.629 19.84 61.525 39.083 95.872 55.851l4.523 2.005 10.667 6.4q-19.2 14.933-70.4 51.2c-45.611 30.549-85.248 61.397-122.624 94.763l1.067-0.939c-36.139 31.104-62.464 72.661-74.283 119.979l-0.341 1.621c-1.109 6.571-1.749 14.123-1.749 21.803 0 24.064 6.187 46.677 17.024 66.347l-0.341-0.725c23.893 51.371 57.003 94.677 97.621 129.493l0.512 0.427c43.947 41.515 93.696 77.653 147.712 106.923l3.712 1.835c48.256 27.861 104.619 53.76 163.371 74.539l7.253 2.219c54.571 19.968 117.589 31.659 183.296 31.872h0.085c2.987 0.085 6.528 0.171 10.069 0.171 52.949 0 103.040-12.245 147.584-34.048l-1.963 0.896c38.4-17.493 67.157-50.432 78.677-90.709l0.256-1.024c3.541-13.739 5.547-29.525 5.547-45.781 0-26.965-5.589-52.651-15.616-75.947l0.469 1.237c-18.261-44.245-44.245-81.92-76.672-112.939l-0.128-0.128c-32.853-32.555-72.235-58.581-115.968-75.947l-2.347-0.811c-45.824-19.669-99.029-32.043-154.88-34.091l-0.811-0.043c-8.192-0.939-17.664-1.451-27.264-1.451-25.259 0-49.621 3.627-72.661 10.411l1.835-0.469c-20.608 6.571-38.4 16.768-53.504 29.995l0.171-0.128c-10.581 8.619-19.2 19.243-25.344 31.317l-0.256 0.555q-6.4 17.067-1.067 20.267t7.467 1.067l10.667-10.667c11.904-11.051 26.112-19.755 41.813-25.301l0.853-0.256c21.589-7.509 46.507-11.861 72.405-11.861 8.32 0 16.512 0.427 24.576 1.323l-0.981-0.085c69.035 8.149 131.285 31.701 185.003 67.115l-1.579-0.981c45.397 27.008 82.133 64.128 107.989 108.373l0.768 1.451c12.843 18.859 20.523 42.155 20.523 67.243 0 15.403-2.901 30.165-8.192 43.733l0.299-0.811c-15.957 25.216-41.771 42.965-71.893 47.872l-0.597 0.085c-23.381 5.76-50.261 9.088-77.867 9.088-22.229 0-43.989-2.133-65.024-6.229l2.133 0.341c-71.979-12.971-136.32-35.2-195.669-65.749l3.883 1.835q-262.315-132.267-270.891-270.891v-2.091c0-37.248 14.635-71.083 38.485-96.085l-0.043 0.043c27.179-30.208 57.216-56.875 90.027-79.915l1.664-1.109c29.909-22.357 56.363-45.44 80.981-70.357l0.043-0.085 4.267-4.267 136.533 74.624c15.573 22.528 34.304 41.557 55.808 56.917l0.683 0.469c17.067 14.336 38.741 23.68 62.507 25.557l0.384 0.043c0.853 0.085 1.835 0.085 2.859 0.085 15.915 0 29.568-9.6 35.456-23.339l0.085-0.256c4.48-10.027 7.083-21.76 7.083-34.091 0-3.755-0.256-7.467-0.725-11.136l0.043 0.427-4.139-21.035 6.4 4.267c4.437 3.371 10.027 5.376 16.085 5.376 3.84 0 7.467-0.811 10.752-2.261l-0.171 0.085c8.192-2.133 14.123-9.472 14.123-18.176 0-1.493-0.171-2.944-0.512-4.352l0.043 0.128-6.4-23.467q-19.2-76.757-25.557-110.891c-2.133-7.381-3.328-15.872-3.328-24.661 0-1.835 0.043-3.627 0.171-5.419v0.256q1.067-12.8 3.2-12.8t8.491 12.8l6.4 14.933q2.133 0 0-2.133l23.467 49.067q83.2 183.381 89.557 204.8l12.8 40.491q2.133 4.267 17.067 8.491c10.112 2.731 21.675 4.309 33.621 4.309 0.981 0 1.963 0 2.901-0.043h-0.128q29.867 0 29.867-14.933l-2.133-10.667c-4.779-13.141-9.515-29.568-13.184-46.379l-0.469-2.688c-0.853-5.504-1.365-11.819-1.365-18.304 0-8.619 0.853-17.024 2.517-25.173l-0.128 0.811 2.133-8.491c4.352-17.792 10.965-33.408 19.627-47.659l-0.427 0.725q25.557 42.624 49.067 87.424c12.373 20.608 23.893 44.501 33.152 69.504l0.981 2.987c3.2 16.085 6.869 29.653 11.349 42.88l-0.683-2.389q2.133 6.4 18.219 9.6c10.155 2.048 21.803 3.2 33.707 3.2h1.451q29.867 0 31.872-14.933l-4.267-8.491c-5.077-14.336-9.515-31.573-12.501-49.28l-0.256-1.92c-0.384-4.139-0.64-8.917-0.64-13.781 0-10.197 1.024-20.181 2.944-29.824l-0.171 0.981v-8.491c4.907-18.603 12.203-34.944 21.76-49.749l-0.427 0.683 6.4-14.933c35.627 17.493 77.525 27.733 121.813 27.733h1.579zM260.011 61.909c29.653 30.635 47.957 72.448 47.957 118.528 0 17.792-2.731 34.944-7.765 51.072l0.341-1.195-34.133-21.333c-34.816-19.84-64.939-41.984-92.203-67.157l0.341 0.299c-20.693-19.029-35.968-43.648-43.477-71.424l-0.256-1.067q-9.6-39.467 9.6-51.2c7.808-3.584 16.981-5.675 26.581-5.675 10.496 0 20.437 2.475 29.184 6.912l-0.384-0.171c25.344 9.216 46.805 23.851 63.872 42.581l0.128 0.128zM545.749 258.347q10.667 27.733 23.467 66.133 17.067 51.2 11.733 59.691t-20.267 2.133c-11.861-5.76-21.803-13.653-29.739-23.339l-0.128-0.171c-8.875-11.221-17.323-23.765-24.832-36.949l-0.768-1.451c-8.619-14.123-15.915-30.379-20.992-47.616l-0.384-1.451c-8.235-22.315-13.013-48.128-13.013-75.008 0-3.627 0.085-7.211 0.256-10.795v0.512q2.133-42.624 13.653-45.867t26.667 30.933c9.771 17.621 18.475 38.101 24.96 59.563l0.597 2.304q6.357 15.104 8.704 21.376zM782.379 145.28c29.568 13.269 50.389 41.216 53.291 74.283l0.043 0.341v2.133l-23.467-29.867-42.624-46.933c-0.64-0.512-1.067-1.28-1.067-2.133s0.427-1.621 1.024-2.133q2.048-2.091 12.8 4.267zM965.803 185.813c32.256 9.216 55.467 38.443 55.467 73.045 0 0.555 0 1.109 0 1.664v-0.085c-0.427 8.533-1.963 16.555-4.48 24.149l0.171-0.64c-16.597-14.763-30.208-32.427-40.064-52.352l-0.469-0.981q-19.243-38.357-10.752-44.715z" />
<glyph unicode="&#xe917;" glyph-name="scenery" d="M810.667 874.667h-597.333c-70.692 0-128-57.308-128-128v0-597.333c0-70.692 57.308-128 128-128v0h597.333c7.462 0.107 14.674 0.879 21.667 2.258l-0.761-0.125 12.8 2.987h5.12l15.787 5.973 5.547 2.987c4.267 2.56 8.96 4.693 13.227 7.68 5.997 4.436 11.284 8.911 16.266 13.703l-0.052-0.050 2.987 3.84c4.082 4.135 7.862 8.592 11.29 13.32l0.23 0.333 3.84 5.547c2.713 4.245 5.287 9.154 7.438 14.284l0.242 0.65c1.055 1.801 2.060 3.911 2.889 6.106l0.097 0.294c2.133 5.12 3.413 10.667 5.12 16.213v6.4c2.282 7.555 3.809 16.305 4.256 25.34l0.010 0.26v597.333c0 70.692-57.308 128-128 128v0zM213.333 106.667c-23.564 0-42.667 19.103-42.667 42.667v0 183.893l140.373 140.8c7.733 7.795 18.45 12.621 30.293 12.621s22.56-4.826 30.291-12.618l0.003-0.003 366.933-367.36zM853.333 149.333c-0.044-5.54-1.136-10.813-3.089-15.646l0.102 0.286c-1.089-2.306-2.227-4.264-3.506-6.116l0.093 0.142c-1.227-1.927-2.491-3.599-3.877-5.162l0.037 0.042-228.267 228.267 37.547 37.547c7.733 7.795 18.45 12.621 30.293 12.621s22.56-4.826 30.291-12.618l0.003-0.003 140.373-140.8zM853.333 368.64l-80.213 79.36c-23.51 22.342-55.377 36.084-90.453 36.084s-66.943-13.743-90.51-36.137l0.056 0.053-37.547-37.547-122.88 122.88c-23.51 22.342-55.377 36.084-90.453 36.084s-66.943-13.743-90.51-36.137l0.056 0.053-80.213-79.36v292.693c0 23.564 19.103 42.667 42.667 42.667v0h597.333c23.564 0 42.667-19.103 42.667-42.667v0zM576 704c-35.346 0-64-28.654-64-64s28.654-64 64-64c35.346 0 64 28.654 64 64v0c0 35.346-28.654 64-64 64v0z" />
<glyph unicode="&#xe918;" glyph-name="sun" d="M240.64 234.667l-30.293-30.293c-7.668-7.712-12.407-18.343-12.407-30.080s4.74-22.368 12.409-30.082l-0.002 0.002c7.712-7.668 18.343-12.407 30.080-12.407s22.368 4.74 30.082 12.409l30.291 30.291c6.377 7.412 10.259 17.129 10.259 27.753 0 23.564-19.103 42.667-42.667 42.667-10.624 0-20.341-3.883-27.809-10.307l0.056 0.047zM213.333 448c0 23.564-19.103 42.667-42.667 42.667v0h-42.667c-23.564 0-42.667-19.103-42.667-42.667s19.103-42.667 42.667-42.667v0h42.667c23.564 0 42.667 19.103 42.667 42.667v0zM512 746.667c23.564 0 42.667 19.103 42.667 42.667v0 42.667c0 23.564-19.103 42.667-42.667 42.667s-42.667-19.103-42.667-42.667v0-42.667c0-23.564 19.103-42.667 42.667-42.667v0zM240.64 659.2c7.667-7.606 18.211-12.323 29.857-12.373h0.010c0.073 0 0.16-0.001 0.247-0.001 11.721 0 22.338 4.726 30.049 12.377l-0.003-0.003c7.668 7.712 12.407 18.343 12.407 30.080s-4.74 22.368-12.409 30.082l-30.291 30.291c-7.412 6.377-17.129 10.259-27.753 10.259-23.564 0-42.667-19.103-42.667-42.667 0-10.624 3.883-20.341 10.307-27.809l-0.047 0.056zM752.64 646.827c11.656 0.051 22.2 4.767 29.869 12.376l30.29 30.29c9.153 7.872 14.914 19.467 14.914 32.407 0 23.564-19.103 42.667-42.667 42.667-12.94 0-24.535-5.761-32.36-14.858l-0.047-0.056-27.307-30.293c-7.668-7.712-12.407-18.343-12.407-30.080s4.74-22.368 12.409-30.082l-0.002 0.002c7.267-7.23 17.128-11.859 28.065-12.37l0.095-0.004zM896 490.667h-42.667c-23.564 0-42.667-19.103-42.667-42.667s19.103-42.667 42.667-42.667v0h42.667c23.564 0 42.667 19.103 42.667 42.667s-19.103 42.667-42.667 42.667v0zM512 149.333c-23.564 0-42.667-19.103-42.667-42.667v0-42.667c0-23.564 19.103-42.667 42.667-42.667s42.667 19.103 42.667 42.667v0 42.667c0 23.564-19.103 42.667-42.667 42.667v0zM783.36 234.667c-5.976 3.385-13.125 5.38-20.74 5.38-23.564 0-42.667-19.103-42.667-42.667 0-7.615 1.995-14.764 5.491-20.953l-0.111 0.213 30.293-30.293c7.712-7.668 18.343-12.407 30.080-12.407s22.368 4.74 30.082 12.409l-0.002-0.002c7.668 7.712 12.407 18.343 12.407 30.080s-4.74 22.368-12.409 30.082l0.002-0.002zM512 682.667c-129.603 0-234.667-105.064-234.667-234.667s105.064-234.667 234.667-234.667c129.603 0 234.667 105.064 234.667 234.667v0c-0.242 129.505-105.161 234.424-234.643 234.667h-0.023zM512 298.667c-82.475 0-149.333 66.859-149.333 149.333s66.859 149.333 149.333 149.333c82.475 0 149.333-66.859 149.333-149.333v0c0-82.475-66.859-149.333-149.333-149.333v0z" />
<glyph unicode="&#xe919;" glyph-name="tailwind" d="M789.333 554.24c-32.905 11.546-60.496 31.297-81.231 56.84l-0.262 0.334c-45.494 56.654-114.754 92.611-192.412 92.611-1.205 0-2.409-0.009-3.61-0.026l0.182 0.002c-4.257 0.32-9.22 0.503-14.227 0.503-100.558 0-183.903-73.702-198.961-170.035l-0.146-1.135c24.497 40.476 68.286 67.114 118.297 67.114 11.007 0 21.712-1.29 31.973-3.728l-0.936 0.188c32.849-11.877 60.395-31.727 81.23-57.267l0.263-0.333c45.496-55.916 114.308-91.347 191.396-91.347 1.563 0 3.122 0.015 4.677 0.044l-0.233-0.003c4.257-0.32 9.22-0.503 14.227-0.503 100.558 0 183.903 73.702 198.961 170.035l0.146 1.135c-24.076-40.974-67.933-68.044-118.113-68.044-11.075 0-21.842 1.319-32.153 3.808l0.932-0.19zM234.667 341.76c32.905-11.546 60.496-31.297 81.231-56.84l0.262-0.334c45.494-56.654 114.754-92.611 192.412-92.611 1.205 0 2.409 0.009 3.61 0.026l-0.182-0.002c4.257-0.32 9.22-0.503 14.227-0.503 100.558 0 183.903 73.702 198.961 170.035l0.146 1.135c-24.497-40.476-68.286-67.114-118.297-67.114-11.007 0-21.712 1.29-31.973 3.728l0.936-0.188c-32.849 11.877-60.395 31.727-81.23 57.267l-0.263 0.333c-45.731 55.923-114.729 91.336-191.998 91.336-1.351 0-2.7-0.011-4.046-0.032l0.203 0.003c-4.257 0.32-9.22 0.503-14.227 0.503-100.558 0-183.903-73.702-198.961-170.035l-0.146-1.135c24.076 40.974 67.933 68.044 118.113 68.044 11.075 0 21.842-1.319 32.153-3.808l-0.932 0.19z" />
<glyph unicode="&#xe91a;" glyph-name="times" d="M572.16 448l183.467 183.040c7.753 7.753 12.548 18.463 12.548 30.293 0 23.661-19.181 42.841-42.841 42.841-11.83 0-22.541-4.795-30.293-12.548v0l-183.040-183.467-183.040 183.467c-7.753 7.753-18.463 12.548-30.293 12.548-23.661 0-42.841-19.181-42.841-42.841 0-11.83 4.795-22.541 12.548-30.293v0l183.467-183.040-183.467-183.040c-7.795-7.733-12.621-18.45-12.621-30.293s4.826-22.56 12.618-30.291l0.003-0.003c7.733-7.795 18.45-12.621 30.293-12.621s22.56 4.826 30.291 12.618l0.003 0.003 183.040 183.467 183.040-183.467c7.733-7.795 18.45-12.621 30.293-12.621s22.56 4.826 30.291 12.618l0.003 0.003c7.795 7.733 12.621 18.45 12.621 30.293s-4.826 22.56-12.618 30.291l-0.003 0.003z" />
<glyph unicode="&#xe91b;" glyph-name="user" d="M670.293 417.707c59.731 47.297 97.707 119.811 97.707 201.194 0 141.385-114.615 256-256 256s-256-114.615-256-256c0-81.383 37.976-153.897 97.173-200.787l0.533-0.408c-143.955-58.789-247.237-189.957-265.204-347.048l-0.183-1.965c-0.164-1.408-0.257-3.040-0.257-4.693 0-23.706 19.218-42.924 42.924-42.924 22.053 0 40.221 16.63 42.649 38.034l0.018 0.197c19.813 171.401 164.111 303.231 339.2 303.231s319.387-131.829 339.051-301.645l0.149-1.586c2.444-21.458 20.497-37.974 42.408-37.974 0.091 0 0.182 0 0.273 0.001h4.679c21.372 2.53 37.79 20.541 37.79 42.387 0 1.601-0.088 3.182-0.26 4.738l0.017-0.192c-18.234 159.493-122.072 290.938-263.808 348.415l-2.859 1.025zM512 448c-94.257 0-170.667 76.41-170.667 170.667s76.41 170.667 170.667 170.667c94.257 0 170.667-76.41 170.667-170.667v0c0-94.257-76.41-170.667-170.667-170.667v0z" />
<glyph unicode="&#xe91c;" glyph-name="angle-right" d="M663.040 478.293l-241.493 241.067c-7.733 7.795-18.45 12.621-30.293 12.621s-22.56-4.826-30.291-12.618l-0.003-0.003c-7.668-7.712-12.407-18.343-12.407-30.080s4.74-22.368 12.409-30.082l-0.002 0.002 211.2-213.333-211.2-211.2c-7.668-7.712-12.407-18.343-12.407-30.080s4.74-22.368 12.409-30.082l-0.002 0.002c7.709-7.861 18.426-12.749 30.284-12.8h0.010c11.868 0.051 22.584 4.939 30.287 12.793l0.007 0.007 241.493 241.067c8.458 7.82 13.736 18.974 13.736 31.36s-5.278 23.54-13.707 31.334l-0.028 0.026z" />
</font>
</defs>
</svg>
